<mxfile host="app.diagrams.net" modified="2023-04-13T08:26:21.249Z" agent="Mozilla/5.0 (Windows NT 10.0; Win64; x64) AppleWebKit/537.36 (KHTML, like Gecko) Chrome/112.0.0.0 Safari/537.36" etag="mrQSogQuJiBqnouVgKXX" version="21.1.7" type="github">
  <diagram name="페이지-1" id="jIq9WA10TNeqAV83V8lo">
    <mxGraphModel dx="1434" dy="758" grid="1" gridSize="10" guides="1" tooltips="1" connect="1" arrows="1" fold="1" page="1" pageScale="1" pageWidth="1654" pageHeight="2336" math="0" shadow="0">
      <root>
        <mxCell id="0" />
        <mxCell id="1" parent="0" />
        <mxCell id="gjr8i4dizu3BlgFlOx_w-36" style="edgeStyle=orthogonalEdgeStyle;rounded=0;orthogonalLoop=1;jettySize=auto;html=1;entryX=0.5;entryY=0;entryDx=0;entryDy=0;" edge="1" parent="1" source="gjr8i4dizu3BlgFlOx_w-1" target="gjr8i4dizu3BlgFlOx_w-22">
          <mxGeometry relative="1" as="geometry" />
        </mxCell>
        <mxCell id="gjr8i4dizu3BlgFlOx_w-1" value="집" style="strokeWidth=2;html=1;shape=mxgraph.flowchart.terminator;whiteSpace=wrap;fontSize=20;" vertex="1" parent="1">
          <mxGeometry x="317.5" y="30" width="150" height="60" as="geometry" />
        </mxCell>
        <mxCell id="gjr8i4dizu3BlgFlOx_w-2" value="&lt;font style=&quot;font-size: 20px;&quot;&gt;506&lt;/font&gt;" style="strokeWidth=2;html=1;shape=mxgraph.flowchart.terminator;whiteSpace=wrap;" vertex="1" parent="1">
          <mxGeometry x="327.5" y="1840" width="150" height="60" as="geometry" />
        </mxCell>
        <mxCell id="gjr8i4dizu3BlgFlOx_w-38" style="edgeStyle=orthogonalEdgeStyle;rounded=0;orthogonalLoop=1;jettySize=auto;html=1;entryX=0.5;entryY=0;entryDx=0;entryDy=0;entryPerimeter=0;" edge="1" parent="1" source="gjr8i4dizu3BlgFlOx_w-5" target="gjr8i4dizu3BlgFlOx_w-30">
          <mxGeometry relative="1" as="geometry" />
        </mxCell>
        <mxCell id="gjr8i4dizu3BlgFlOx_w-5" value="1층 도착" style="rounded=1;whiteSpace=wrap;html=1;absoluteArcSize=1;arcSize=14;strokeWidth=2;fontSize=20;" vertex="1" parent="1">
          <mxGeometry x="315" y="230" width="155" height="50" as="geometry" />
        </mxCell>
        <mxCell id="gjr8i4dizu3BlgFlOx_w-37" style="edgeStyle=orthogonalEdgeStyle;rounded=0;orthogonalLoop=1;jettySize=auto;html=1;entryX=0.5;entryY=0;entryDx=0;entryDy=0;" edge="1" parent="1" source="gjr8i4dizu3BlgFlOx_w-22" target="gjr8i4dizu3BlgFlOx_w-5">
          <mxGeometry relative="1" as="geometry" />
        </mxCell>
        <mxCell id="gjr8i4dizu3BlgFlOx_w-22" value="계단" style="rounded=1;whiteSpace=wrap;html=1;absoluteArcSize=1;arcSize=14;strokeWidth=2;fontSize=20;" vertex="1" parent="1">
          <mxGeometry x="315" y="130" width="155" height="50" as="geometry" />
        </mxCell>
        <mxCell id="gjr8i4dizu3BlgFlOx_w-63" style="edgeStyle=orthogonalEdgeStyle;rounded=0;orthogonalLoop=1;jettySize=auto;html=1;" edge="1" parent="1" source="gjr8i4dizu3BlgFlOx_w-23" target="gjr8i4dizu3BlgFlOx_w-61">
          <mxGeometry relative="1" as="geometry" />
        </mxCell>
        <mxCell id="gjr8i4dizu3BlgFlOx_w-23" value="용지역 도착" style="rounded=1;whiteSpace=wrap;html=1;absoluteArcSize=1;arcSize=14;strokeWidth=2;fontSize=20;" vertex="1" parent="1">
          <mxGeometry x="307.5" y="450" width="175" height="50" as="geometry" />
        </mxCell>
        <mxCell id="gjr8i4dizu3BlgFlOx_w-44" style="edgeStyle=orthogonalEdgeStyle;rounded=0;orthogonalLoop=1;jettySize=auto;html=1;entryX=0.5;entryY=0;entryDx=0;entryDy=0;" edge="1" parent="1" source="gjr8i4dizu3BlgFlOx_w-24" target="gjr8i4dizu3BlgFlOx_w-42">
          <mxGeometry relative="1" as="geometry" />
        </mxCell>
        <mxCell id="gjr8i4dizu3BlgFlOx_w-24" value="탑승" style="rounded=1;whiteSpace=wrap;html=1;absoluteArcSize=1;arcSize=14;strokeWidth=2;fontSize=20;" vertex="1" parent="1">
          <mxGeometry x="315" y="790" width="175" height="50" as="geometry" />
        </mxCell>
        <mxCell id="gjr8i4dizu3BlgFlOx_w-50" style="edgeStyle=orthogonalEdgeStyle;rounded=0;orthogonalLoop=1;jettySize=auto;html=1;entryX=0.5;entryY=0;entryDx=0;entryDy=0;" edge="1" parent="1" target="gjr8i4dizu3BlgFlOx_w-26">
          <mxGeometry relative="1" as="geometry">
            <mxPoint x="402.5" y="1280" as="sourcePoint" />
          </mxGeometry>
        </mxCell>
        <mxCell id="gjr8i4dizu3BlgFlOx_w-25" value="1호선으로 갈아탐" style="rounded=1;whiteSpace=wrap;html=1;absoluteArcSize=1;arcSize=14;strokeWidth=2;fontSize=20;" vertex="1" parent="1">
          <mxGeometry x="315" y="1240" width="175" height="50" as="geometry" />
        </mxCell>
        <mxCell id="gjr8i4dizu3BlgFlOx_w-54" style="edgeStyle=orthogonalEdgeStyle;rounded=0;orthogonalLoop=1;jettySize=auto;html=1;entryX=0.5;entryY=0;entryDx=0;entryDy=0;" edge="1" parent="1" source="gjr8i4dizu3BlgFlOx_w-26" target="gjr8i4dizu3BlgFlOx_w-53">
          <mxGeometry relative="1" as="geometry" />
        </mxCell>
        <mxCell id="gjr8i4dizu3BlgFlOx_w-26" value="반월당역 도착" style="rounded=1;whiteSpace=wrap;html=1;absoluteArcSize=1;arcSize=14;strokeWidth=2;fontSize=20;" vertex="1" parent="1">
          <mxGeometry x="315" y="1340" width="175" height="50" as="geometry" />
        </mxCell>
        <mxCell id="gjr8i4dizu3BlgFlOx_w-40" value="YES" style="edgeStyle=orthogonalEdgeStyle;rounded=0;orthogonalLoop=1;jettySize=auto;html=1;entryX=0.457;entryY=-0.04;entryDx=0;entryDy=0;entryPerimeter=0;" edge="1" parent="1" source="gjr8i4dizu3BlgFlOx_w-28" target="gjr8i4dizu3BlgFlOx_w-24">
          <mxGeometry relative="1" as="geometry" />
        </mxCell>
        <mxCell id="gjr8i4dizu3BlgFlOx_w-65" value="NO" style="edgeStyle=orthogonalEdgeStyle;rounded=0;orthogonalLoop=1;jettySize=auto;html=1;" edge="1" parent="1" source="gjr8i4dizu3BlgFlOx_w-28">
          <mxGeometry relative="1" as="geometry">
            <mxPoint x="490" y="570" as="targetPoint" />
            <Array as="points">
              <mxPoint x="680" y="695" />
              <mxPoint x="680" y="570" />
            </Array>
          </mxGeometry>
        </mxCell>
        <mxCell id="gjr8i4dizu3BlgFlOx_w-28" value="지상철이 왔는가?" style="strokeWidth=2;html=1;shape=mxgraph.flowchart.decision;whiteSpace=wrap;" vertex="1" parent="1">
          <mxGeometry x="270" y="650" width="250" height="90" as="geometry" />
        </mxCell>
        <mxCell id="gjr8i4dizu3BlgFlOx_w-32" value="YES" style="edgeStyle=orthogonalEdgeStyle;rounded=0;orthogonalLoop=1;jettySize=auto;html=1;entryX=0;entryY=0.5;entryDx=0;entryDy=0;" edge="1" parent="1" source="gjr8i4dizu3BlgFlOx_w-30" target="gjr8i4dizu3BlgFlOx_w-31">
          <mxGeometry relative="1" as="geometry" />
        </mxCell>
        <mxCell id="gjr8i4dizu3BlgFlOx_w-33" value="NO" style="edgeStyle=orthogonalEdgeStyle;rounded=0;orthogonalLoop=1;jettySize=auto;html=1;entryX=0.5;entryY=0;entryDx=0;entryDy=0;" edge="1" parent="1" source="gjr8i4dizu3BlgFlOx_w-30" target="gjr8i4dizu3BlgFlOx_w-23">
          <mxGeometry relative="1" as="geometry" />
        </mxCell>
        <mxCell id="gjr8i4dizu3BlgFlOx_w-30" value="버릴 쓰레기가 있는가?" style="strokeWidth=2;html=1;shape=mxgraph.flowchart.decision;whiteSpace=wrap;" vertex="1" parent="1">
          <mxGeometry x="267.5" y="330" width="250" height="70" as="geometry" />
        </mxCell>
        <mxCell id="gjr8i4dizu3BlgFlOx_w-35" style="edgeStyle=orthogonalEdgeStyle;rounded=0;orthogonalLoop=1;jettySize=auto;html=1;entryX=1;entryY=0.5;entryDx=0;entryDy=0;" edge="1" parent="1" source="gjr8i4dizu3BlgFlOx_w-31" target="gjr8i4dizu3BlgFlOx_w-23">
          <mxGeometry relative="1" as="geometry">
            <mxPoint x="690" y="470" as="targetPoint" />
            <Array as="points">
              <mxPoint x="698" y="470" />
              <mxPoint x="483" y="470" />
            </Array>
          </mxGeometry>
        </mxCell>
        <mxCell id="gjr8i4dizu3BlgFlOx_w-31" value="분리수거장" style="rounded=1;whiteSpace=wrap;html=1;absoluteArcSize=1;arcSize=14;strokeWidth=2;fontSize=20;" vertex="1" parent="1">
          <mxGeometry x="620" y="340" width="155" height="50" as="geometry" />
        </mxCell>
        <mxCell id="gjr8i4dizu3BlgFlOx_w-60" style="edgeStyle=orthogonalEdgeStyle;rounded=0;orthogonalLoop=1;jettySize=auto;html=1;entryX=0.5;entryY=0;entryDx=0;entryDy=0;" edge="1" parent="1" source="gjr8i4dizu3BlgFlOx_w-42" target="gjr8i4dizu3BlgFlOx_w-58">
          <mxGeometry relative="1" as="geometry" />
        </mxCell>
        <mxCell id="gjr8i4dizu3BlgFlOx_w-42" value="명덕역 도착" style="rounded=1;whiteSpace=wrap;html=1;absoluteArcSize=1;arcSize=14;strokeWidth=2;fontSize=20;" vertex="1" parent="1">
          <mxGeometry x="315" y="880" width="175" height="50" as="geometry" />
        </mxCell>
        <mxCell id="gjr8i4dizu3BlgFlOx_w-48" value="YES" style="edgeStyle=orthogonalEdgeStyle;rounded=0;orthogonalLoop=1;jettySize=auto;html=1;entryX=0.5;entryY=0;entryDx=0;entryDy=0;" edge="1" parent="1" source="gjr8i4dizu3BlgFlOx_w-46" target="gjr8i4dizu3BlgFlOx_w-25">
          <mxGeometry relative="1" as="geometry" />
        </mxCell>
        <mxCell id="gjr8i4dizu3BlgFlOx_w-67" value="NO" style="edgeStyle=orthogonalEdgeStyle;rounded=0;orthogonalLoop=1;jettySize=auto;html=1;entryX=1;entryY=0.5;entryDx=0;entryDy=0;" edge="1" parent="1" source="gjr8i4dizu3BlgFlOx_w-46" target="gjr8i4dizu3BlgFlOx_w-58">
          <mxGeometry relative="1" as="geometry">
            <mxPoint x="720" y="1135" as="targetPoint" />
            <Array as="points">
              <mxPoint x="720" y="1135" />
              <mxPoint x="720" y="1005" />
            </Array>
          </mxGeometry>
        </mxCell>
        <mxCell id="gjr8i4dizu3BlgFlOx_w-46" value="지하철이 왔는가?" style="strokeWidth=2;html=1;shape=mxgraph.flowchart.decision;whiteSpace=wrap;" vertex="1" parent="1">
          <mxGeometry x="277.5" y="1090" width="250" height="90" as="geometry" />
        </mxCell>
        <mxCell id="gjr8i4dizu3BlgFlOx_w-70" value="NO" style="edgeStyle=orthogonalEdgeStyle;rounded=0;orthogonalLoop=1;jettySize=auto;html=1;entryX=1;entryY=0.5;entryDx=0;entryDy=0;" edge="1" parent="1" source="gjr8i4dizu3BlgFlOx_w-51" target="gjr8i4dizu3BlgFlOx_w-68">
          <mxGeometry relative="1" as="geometry">
            <mxPoint x="680" y="1580" as="targetPoint" />
            <Array as="points">
              <mxPoint x="710" y="1735" />
              <mxPoint x="710" y="1580" />
              <mxPoint x="493" y="1580" />
            </Array>
          </mxGeometry>
        </mxCell>
        <mxCell id="gjr8i4dizu3BlgFlOx_w-73" value="YES" style="edgeStyle=orthogonalEdgeStyle;rounded=0;orthogonalLoop=1;jettySize=auto;html=1;entryX=0.5;entryY=0;entryDx=0;entryDy=0;entryPerimeter=0;" edge="1" parent="1" source="gjr8i4dizu3BlgFlOx_w-51" target="gjr8i4dizu3BlgFlOx_w-2">
          <mxGeometry relative="1" as="geometry" />
        </mxCell>
        <mxCell id="gjr8i4dizu3BlgFlOx_w-51" value="엘리베이터가 왔는가?" style="strokeWidth=2;html=1;shape=mxgraph.flowchart.decision;whiteSpace=wrap;" vertex="1" parent="1">
          <mxGeometry x="277.5" y="1690" width="250" height="90" as="geometry" />
        </mxCell>
        <mxCell id="gjr8i4dizu3BlgFlOx_w-69" style="edgeStyle=orthogonalEdgeStyle;rounded=0;orthogonalLoop=1;jettySize=auto;html=1;entryX=0.5;entryY=0;entryDx=0;entryDy=0;" edge="1" parent="1" source="gjr8i4dizu3BlgFlOx_w-53" target="gjr8i4dizu3BlgFlOx_w-68">
          <mxGeometry relative="1" as="geometry" />
        </mxCell>
        <mxCell id="gjr8i4dizu3BlgFlOx_w-53" value="학원 1층 도착" style="rounded=1;whiteSpace=wrap;html=1;absoluteArcSize=1;arcSize=14;strokeWidth=2;fontSize=20;" vertex="1" parent="1">
          <mxGeometry x="315" y="1450" width="175" height="50" as="geometry" />
        </mxCell>
        <mxCell id="gjr8i4dizu3BlgFlOx_w-66" style="edgeStyle=orthogonalEdgeStyle;rounded=0;orthogonalLoop=1;jettySize=auto;html=1;entryX=0.5;entryY=0;entryDx=0;entryDy=0;entryPerimeter=0;" edge="1" parent="1" source="gjr8i4dizu3BlgFlOx_w-58" target="gjr8i4dizu3BlgFlOx_w-46">
          <mxGeometry relative="1" as="geometry" />
        </mxCell>
        <mxCell id="gjr8i4dizu3BlgFlOx_w-58" value="역 대기" style="rounded=1;whiteSpace=wrap;html=1;absoluteArcSize=1;arcSize=14;strokeWidth=2;fontSize=20;" vertex="1" parent="1">
          <mxGeometry x="315" y="980" width="175" height="50" as="geometry" />
        </mxCell>
        <mxCell id="gjr8i4dizu3BlgFlOx_w-64" style="edgeStyle=orthogonalEdgeStyle;rounded=0;orthogonalLoop=1;jettySize=auto;html=1;" edge="1" parent="1" source="gjr8i4dizu3BlgFlOx_w-61" target="gjr8i4dizu3BlgFlOx_w-28">
          <mxGeometry relative="1" as="geometry" />
        </mxCell>
        <mxCell id="gjr8i4dizu3BlgFlOx_w-61" value="역 대기" style="rounded=1;whiteSpace=wrap;html=1;absoluteArcSize=1;arcSize=14;strokeWidth=2;fontSize=20;" vertex="1" parent="1">
          <mxGeometry x="307.5" y="550" width="175" height="50" as="geometry" />
        </mxCell>
        <mxCell id="gjr8i4dizu3BlgFlOx_w-71" style="edgeStyle=orthogonalEdgeStyle;rounded=0;orthogonalLoop=1;jettySize=auto;html=1;entryX=0.5;entryY=0;entryDx=0;entryDy=0;entryPerimeter=0;" edge="1" parent="1" source="gjr8i4dizu3BlgFlOx_w-68" target="gjr8i4dizu3BlgFlOx_w-51">
          <mxGeometry relative="1" as="geometry" />
        </mxCell>
        <mxCell id="gjr8i4dizu3BlgFlOx_w-68" value="1층 대기" style="rounded=1;whiteSpace=wrap;html=1;absoluteArcSize=1;arcSize=14;strokeWidth=2;fontSize=20;" vertex="1" parent="1">
          <mxGeometry x="315" y="1560" width="175" height="50" as="geometry" />
        </mxCell>
      </root>
    </mxGraphModel>
  </diagram>
</mxfile>
